HIERARCHY
ROOT Hips
{
	OFFSET 0.000000 0.000000 0.000000 
	CHANNELS 6 Xposition Yposition Zposition Yrotation Zrotation Xrotation 
	JOINT Lumbar
	{
		OFFSET 0.000000 0.000000 0.000000 
		CHANNELS 3 Zrotation Xrotation Yrotation
		JOINT Neck
		{
			OFFSET 0.000000 0.445665 0.000000 
			CHANNELS 3 Zrotation Xrotation Yrotation
			End Site
			{
				OFFSET 0.000000 0.227535 0.000000 
			}
		}
		JOINT RightShoulder
		{
			OFFSET 0.019635 0.377685 0.194865 
			CHANNELS 3 Zrotation Xrotation Yrotation
			JOINT RightElbow
			{
				OFFSET 0.000000 -0.243375 0.000000 
				CHANNELS 2 Zrotation Yrotation
				JOINT RightWrist
				{
					OFFSET 0.000000 -0.264825 0.000000 
					CHANNELS 2 Zrotation Xrotation
					End Site
					{
						OFFSET 0.006600 -0.176220 0.000990 
					}
				}
			}
		}
		JOINT LeftShoulder
		{
			OFFSET 0.019635 0.377685 -0.194865 
			CHANNELS 3 Zrotation Xrotation Yrotation
			JOINT LeftElbow
			{
				OFFSET 0.000000 -0.243375 0.000000 
				CHANNELS 2 Zrotation Yrotation
				JOINT LeftWrist
				{
					OFFSET 0.000000 -0.264825 0.000000 
					CHANNELS 2 Zrotation Xrotation
					End Site
					{
						OFFSET 0.006600 -0.176220 -0.000990 
					}
				}
			}
		}
	}
	JOINT RightHip
	{
		OFFSET 0.052140 -0.069960 0.075570 
		CHANNELS 3 Zrotation Xrotation Yrotation
		JOINT RightKnee
		{
			OFFSET 0.000000 -0.402270 0.000000 
			CHANNELS 1 Zrotation
			JOINT RightAnkle
			{
				OFFSET 0.000000 -0.404085 0.000000 
				CHANNELS 3 Zrotation Xrotation Yrotation
				End Site
				{
					OFFSET 0.204105 -0.089430 0.008415 
				}
			}
		}
	}
	JOINT LeftHip
	{
		OFFSET 0.052140 -0.069960 -0.075570 
		CHANNELS 3 Zrotation Xrotation Yrotation
		JOINT LeftKnee
		{
			OFFSET 0.000000 -0.402270 0.000000 
			CHANNELS 1 Zrotation
			JOINT LeftAnkle
			{
				OFFSET 0.000000 -0.404085 0.000000 
				CHANNELS 3 Zrotation Xrotation Yrotation
				End Site
				{
					OFFSET 0.204105 -0.089430 -0.008415 
				}
			}
		}
	}
}
MOTION
Frames: 14
Frame Time: 0.02
-0.00153 -0.00039 -0.00334 8.71271 -21.47759 -4.40084 44.25667 2.10509 -5.41222 -9.5218 -3.5812 -0.34017 -23.49629 -9.79815 -6.64974 32.07318 89.22195 7.05424 -1.07668 -24.6877 13.26292 -1.90503 43.5357 -94.52287 14.7096 0.90655 36.41817 -2.78082 -8.28041 -20.8667 -8.45006 -4.41317 -3.07926 38.28406 8.3107 1.33802 -26.86159 -9.21136 5.09957 3.49284
1e-05 -0.00028 -0.00206 8.63838 -21.54704 -4.35394 44.32082 2.10693 -5.52529 -9.44658 -3.59479 -0.34091 -23.28736 -9.88279 -6.37701 32.48142 89.07097 7.03954 -1.07076 -24.42675 13.26831 -2.03308 43.5239 -94.53234 14.62364 0.90052 36.42945 -2.70811 -8.27484 -20.8867 -8.43445 -4.41531 -3.07854 38.26041 8.33945 1.1397 -26.86495 -9.23577 5.11118 3.50171
0.00154 -0.00017 -0.00077 8.56423 -21.61633 -4.30716 44.38478 2.10877 -5.63839 -9.37178 -3.60839 -0.34166 -23.07896 -9.9673 -6.10485 32.88873 88.92064 7.02488 -1.06485 -24.16675 13.27355 -2.16032 43.51177 -94.54505 14.53872 0.89397 36.44064 -2.63544 -8.26933 -20.90666 -8.41888 -4.41744 -3.07782 38.23675 8.36835 0.94208 -26.86824 -9.26013 5.12276 3.51054
0.00307 -7e-05 0.00051 8.49012 -21.68558 -4.2604 44.44873 2.1106 -5.75119 -9.29682 -3.62196 -0.3424 -22.87065 -10.0517 -5.8329 33.29577 88.77017 7.01023 -1.05894 -23.90661 13.27888 -2.28789 43.49994 -94.55526 14.45322 0.88783 36.45188 -2.56293 -8.2638 -20.92661 -8.40332 -4.41957 -3.0771 38.21317 8.39705 0.74438 -26.87158 -9.28447 5.13433 3.51938
0.00461 4e-05 0.00179 8.41585 -21.75498 -4.21352 44.51286 2.11244 -5.86381 -9.22137 -3.6355 -0.34314 -22.6619 -10.13616 -5.56052 33.70361 88.61895 6.99556 -1.05303 -23.6455 13.28446 -2.41651 43.48858 -94.56035 14.36621 0.88252 36.46324 -2.49044 -8.25814 -20.94658 -8.38775 -4.42172 -3.07639 38.18964 8.42552 0.54596 -26.87499 -9.30883 5.14595 3.52826
0.00614 0.00015 0.00308 8.34197 -21.82402 -4.16698 44.57645 2.11428 -5.9779 -9.14795 -3.64923 -0.34389 -22.45427 -10.22079 -5.28886 34.10973 88.47046 6.9809 -1.04713 -23.38787 13.28902 -2.54089 43.47486 -94.58867 14.28559 0.87341 36.47408 -2.41735 -8.25293 -20.96651 -8.37217 -4.42379 -3.07565 38.16571 8.45533 0.35002 -26.87802 -9.33318 5.15742 3.53702
0.00767 0.00025 0.00436 8.26739 -21.89369 -4.1198 44.64108 2.11611 -6.08893 -9.0705 -3.66258 -0.34463 -22.24451 -10.30497 -5.01596 34.5189 88.31675 6.96626 -1.0412 -23.12342 13.29549 -2.67344 43.46584 -94.572 14.19267 0.87168 36.48593 -2.34561 -8.24693 -20.98652 -8.35662 -4.42601 -3.07496 38.1426 8.48239 0.1493 -26.88184 -9.35754 5.16918 3.54599
0.0092 0.00036 0.00565 8.19343 -21.96282 -4.07321 44.70473 2.11794 -6.20273 -8.9968 -3.67623 -0.34537 -22.0369 -10.38959 -4.74436 34.92523 88.16768 6.95156 -1.0353 -22.86546 13.30044 -2.79885 43.45262 -94.59359 14.11026 0.86366 36.49687 -2.27252 -8.24145 -21.00644 -8.34104 -4.42811 -3.07424 38.11875 8.51204 -0.04699 -26.88492 -9.38189 5.18067 3.55477
0.01074 0.00047 0.00696 8.12029 -22.03118 -4.02735 44.76726 2.1198 -6.32027 -8.92757 -3.69047 -0.34613 -21.83106 -10.47471 -4.47356 35.32843 88.02492 6.93694 -1.02945 -22.61453 13.30257 -2.91395 43.43367 -94.67533 14.04412 0.8458 36.50661 -2.19814 -8.23746 -21.02631 -8.32543 -4.42999 -3.07344 38.09389 8.54467 -0.23804 -26.88712 -9.40624 5.19185 3.56333
0.01225 0.00056 0.00815 8.04261 -22.10363 -3.97731 44.83647 2.12157 -6.41736 -8.83229 -3.70197 -0.34683 -21.61244 -10.55687 -4.19579 35.75067 87.84775 6.9223 -1.02337 -22.32047 13.318 -3.08363 43.44587 -94.4513 13.89465 0.87807 36.52302 -2.13225 -8.22744 -21.04665 -8.30998 -4.43292 -3.07297 38.07455 8.55958 -0.45976 -26.89443 -9.43064 5.20486 3.57318
0.01383 0.0007 0.00959 7.97438 -22.16765 -3.93608 44.89144 2.12349 -6.55685 -8.79215 -3.71885 -0.34764 -21.42251 -10.64531 -3.93429 36.13201 87.74198 6.90743 -1.01773 -22.11913 13.30726 -3.14121 43.39358 -94.84625 13.91434 0.80878 36.52551 -2.04781 -8.22851 -21.06588 -8.2942 -4.43379 -3.07188 38.04376 8.61224 -0.61643 -26.89093 -9.4549 5.21399 3.5803
0.01561 0.00099 0.01167 7.93344 -22.20683 -3.91918 44.90804 2.12605 -6.81999 -8.9034 -3.75407 -0.34875 -21.29807 -10.75091 -3.70505 36.40567 87.84446 6.89427 -1.01351 -22.16049 13.20826 -2.86219 43.15212 -97.17697 14.45879 0.42243 36.48817 -1.91711 -8.27461 -21.08293 -8.27751 -4.42746 -3.06822 37.97972 8.76672 -0.59554 -26.85776 -9.4788 5.21259 3.57995
0.01746 0.00133 0.01401 7.90174 -22.23791 -3.91107 44.91021 2.12869 -7.12424 -9.06993 -3.79406 -0.34996 -21.20501 -10.86279 -3.4946 36.63706 88.01666 6.88056 -1.00968 -22.29712 13.0858 -2.47539 42.84803 -100.08853 15.16272 -0.05932 36.43721 -1.76701 -8.32973 -21.09871 -8.26043 -4.41928 -3.06405 37.90457 8.95946 -0.50905 -26.81374 -9.50252 5.20726 3.57687
0.01928 0.00164 0.01625 7.8649 -22.27376 -3.89888 44.91848 2.13117 -7.40508 -9.21122 -3.82955 -0.35112 -21.10615 -10.97192 -3.28344 36.88533 88.14852 6.86543 -1.00556 -22.39782 12.98515 -2.15765 42.58076 -102.57526 15.75299 -0.47173 36.39352 -1.62261 -8.37045 -21.11447 -8.24359 -4.413 -3.0607 37.83565 9.13579 -0.45205 -26.77465 -9.52629 5.20365 3.57505
